<?xml version="1.0" encoding="utf-8"?>
<!-- Generator: Adobe Illustrator 16.0.0, SVG Export Plug-In . SVG Version: 6.00 Build 0)  -->
<!DOCTYPE svg PUBLIC "-//W3C//DTD SVG 1.1//EN" "http://www.w3.org/Graphics/SVG/1.1/DTD/svg11.dtd">
<svg version="1.1" id="Layer_1" xmlns="http://www.w3.org/2000/svg" xmlns:xlink="http://www.w3.org/1999/xlink" x="0px" y="0px"
	 width="273.036px" height="40px" viewBox="0 0 273.036 40" enable-background="new 0 0 273.036 40" xml:space="preserve">
<rect fill="#333333" width="273" height="40"/>
<g>
	<path fill="#FFFFFF" d="M22.101,17.237c-1.284-0.654-2.592-0.981-3.924-0.981c-0.885,0-1.562,0.104-2.033,0.311
		c-0.471,0.207-0.706,0.495-0.706,0.861c0,0.383,0.251,0.663,0.754,0.838c0.359,0.127,0.945,0.215,1.758,0.263
		c1.196,0.08,1.986,0.144,2.369,0.19c1.084,0.144,1.886,0.412,2.405,0.803c0.518,0.39,0.777,0.944,0.777,1.662
		c0,0.917-0.407,1.627-1.22,2.129c-0.813,0.503-1.982,0.754-3.505,0.754c-2.209,0-3.928-0.486-5.156-1.459l0.79-1.041
		c1.356,0.83,2.815,1.244,4.378,1.244c1.013,0,1.798-0.139,2.356-0.419c0.535-0.271,0.801-0.642,0.801-1.112
		c0-0.55-0.351-0.916-1.053-1.101c-0.367-0.096-1.355-0.194-2.966-0.299c-1.428-0.096-2.428-0.287-3.002-0.574
		c-0.67-0.335-1.005-0.896-1.005-1.687c0-0.813,0.381-1.456,1.143-1.926c0.761-0.47,1.836-0.706,3.224-0.706
		c1.866,0,3.429,0.426,4.689,1.28L22.101,17.237z"/>
	<path fill="#FFFFFF" d="M33.059,17.799h-3.517v6.065h-1.435v-6.065h-3.517v-1.292h8.469V17.799z"/>
	<path fill="#FFFFFF" d="M36.408,23.864h-1.854v-1.304h1.854V23.864z"/>
	<path fill="#FFFFFF" d="M51.337,19.401c0.988,0.336,1.483,1.065,1.483,2.189c0,1.517-1.093,2.273-3.278,2.273H42.64v-8.661h6.998
		c0.877,0,1.567,0.215,2.07,0.646c0.502,0.431,0.753,1.004,0.753,1.722C52.461,18.361,52.086,18.972,51.337,19.401z M49.662,18.828
		c0.399,0,0.732-0.114,0.999-0.343s0.401-0.507,0.401-0.835c0-0.353-0.12-0.634-0.359-0.842s-0.566-0.312-0.981-0.312h-5.646v2.333
		H49.662z M49.555,22.572c1.196,0,1.794-0.395,1.794-1.184c0-0.847-0.522-1.269-1.567-1.269h-5.706v2.452H49.555z"/>
	<path fill="#FFFFFF" d="M63.012,23.864h-7.919v-7.357h7.644v1.292h-6.208v1.591h4.318v1.292h-4.318v1.89h6.483V23.864z"/>
	<path fill="#FFFFFF" d="M73.527,23.864h-1.645l-1.926-2.703h-3.655v2.703h-1.436v-7.357h5.945c0.782,0,1.404,0.211,1.866,0.634
		c0.462,0.422,0.694,0.989,0.694,1.698c0,1.221-0.61,1.967-1.83,2.237L73.527,23.864z M70.596,19.869
		c0.869,0,1.304-0.335,1.304-1.005c0-0.71-0.462-1.065-1.388-1.065h-4.211v2.07H70.596z"/>
	<path fill="#FFFFFF" d="M84.138,23.864h-2.141l-5-6.136v6.136h-1.436v-7.357h2.139l5.003,6.139v-6.139h1.436V23.864z"/>
	<path fill="#FFFFFF" d="M95.347,23.864h-1.58l-0.847-1.579h-4.944l-0.846,1.579h-1.581l4.007-7.357h1.783L95.347,23.864z
		 M92.203,20.993l-1.748-3.258l-1.762,3.258H92.203z"/>
	<path fill="#FFFFFF" d="M105.419,23.864h-1.645l-1.926-2.703h-3.654v2.703h-1.435v-7.357h5.945c0.781,0,1.403,0.211,1.866,0.634
		c0.462,0.422,0.693,0.989,0.693,1.698c0,1.221-0.61,1.967-1.831,2.237L105.419,23.864z M102.488,19.869
		c0.87,0,1.304-0.335,1.304-1.005c0-0.71-0.463-1.065-1.388-1.065h-4.21v2.07H102.488z"/>
	<path fill="#FFFFFF" d="M112.212,16.507c1.292,0,2.329,0.339,3.111,1.017c0.781,0.678,1.171,1.547,1.171,2.607
		c0,0.965-0.41,1.891-1.231,2.775c-0.232,0.255-0.599,0.475-1.101,0.658c-0.55,0.199-1.121,0.299-1.711,0.299h-5v-7.357H112.212z
		 M112.548,22.572c0.701,0,1.277-0.22,1.728-0.661s0.676-1.002,0.676-1.684c0-0.729-0.239-1.315-0.717-1.761
		c-0.479-0.444-1.117-0.667-1.914-0.667h-3.434v4.773H112.548z"/>
	<path fill="#FFFFFF" d="M129.105,15.204c0.885,0,1.587,0.245,2.104,0.735c0.519,0.491,0.777,1.146,0.777,1.967
		c0,0.862-0.27,1.52-0.808,1.975s-1.321,0.683-2.35,0.683h-5.156v3.301h-1.436v-8.661H129.105z M128.854,19.271
		c1.107,0,1.663-0.446,1.663-1.34c0-0.957-0.586-1.435-1.759-1.435h-5.084v2.775H128.854z"/>
	<path fill="#FFFFFF" d="M142.143,23.864h-1.58l-0.846-1.579h-4.944l-0.846,1.579h-1.58l4.007-7.357h1.783L142.143,23.864z
		 M138.999,20.993l-1.748-3.258l-1.761,3.258H138.999z"/>
	<path fill="#FFFFFF" d="M152.216,23.864h-1.646l-1.926-2.703h-3.654v2.703h-1.435v-7.357h5.944c0.781,0,1.403,0.211,1.866,0.634
		c0.463,0.422,0.693,0.989,0.693,1.698c0,1.221-0.609,1.967-1.83,2.237L152.216,23.864z M149.284,19.869
		c0.87,0,1.305-0.335,1.305-1.005c0-0.71-0.463-1.065-1.388-1.065h-4.211v2.07H149.284z"/>
	<path fill="#FFFFFF" d="M155.684,23.864h-1.435v-7.357h1.435V23.864z"/>
	<path fill="#FFFFFF" d="M164.859,18.325c-0.957-0.502-1.997-0.753-3.122-0.753c-1.635,0-2.452,0.292-2.452,0.873
		c0,0.344,0.307,0.567,0.921,0.671c0.838,0.072,1.675,0.148,2.512,0.228c1.204,0.119,2.062,0.334,2.572,0.646
		c0.565,0.343,0.85,0.865,0.85,1.567c0,0.79-0.353,1.399-1.06,1.83c-0.705,0.431-1.728,0.646-3.068,0.646
		c-1.89,0-3.4-0.43-4.533-1.291l0.778-1.018c1.012,0.71,2.257,1.065,3.731,1.065c0.829,0,1.472-0.105,1.926-0.317
		c0.455-0.212,0.682-0.492,0.682-0.844c0-0.391-0.278-0.666-0.837-0.825c-0.312-0.087-0.793-0.147-1.447-0.18
		c-1.021-0.047-1.646-0.083-1.878-0.107c-0.909-0.088-1.579-0.282-2.01-0.586c-0.431-0.303-0.646-0.745-0.646-1.328
		c0-0.701,0.344-1.257,1.034-1.668c0.689-0.411,1.656-0.616,2.901-0.616c1.658,0,3.002,0.359,4.03,1.077L164.859,18.325z"/>
	<path fill="#FFFFFF" d="M176.487,23.864h-1.436v-3.182h-5.683v3.182h-1.435v-7.357h1.435v2.883h5.683v-2.883h1.436V23.864z"/>
	<path fill="#FFFFFF" d="M192.48,23.864h-1.569l-0.999-1.938h-5.833l-0.998,1.938h-1.57l4.582-8.661h1.806L192.48,23.864z
		 M189.216,20.634l-2.207-4.195l-2.233,4.195H189.216z"/>
	<path fill="#FFFFFF" d="M200.578,18.325c-0.956-0.502-1.997-0.753-3.122-0.753c-1.634,0-2.451,0.292-2.451,0.873
		c0,0.344,0.307,0.567,0.921,0.671c0.838,0.072,1.674,0.148,2.512,0.228c1.204,0.119,2.062,0.334,2.572,0.646
		c0.565,0.343,0.85,0.865,0.85,1.567c0,0.79-0.354,1.399-1.06,1.83c-0.705,0.431-1.728,0.646-3.068,0.646
		c-1.89,0-3.4-0.43-4.533-1.291l0.777-1.018c1.013,0.71,2.257,1.065,3.732,1.065c0.829,0,1.472-0.105,1.926-0.317
		c0.455-0.212,0.682-0.492,0.682-0.844c0-0.391-0.278-0.666-0.837-0.825c-0.312-0.087-0.793-0.147-1.447-0.18
		c-1.021-0.047-1.647-0.083-1.878-0.107c-0.909-0.088-1.579-0.282-2.011-0.586c-0.43-0.303-0.646-0.745-0.646-1.328
		c0-0.701,0.345-1.257,1.034-1.668c0.69-0.411,1.657-0.616,2.901-0.616c1.659,0,3.003,0.359,4.031,1.077L200.578,18.325z"/>
	<path fill="#FFFFFF" d="M210.316,18.325c-0.956-0.502-1.997-0.753-3.122-0.753c-1.635,0-2.452,0.292-2.452,0.873
		c0,0.344,0.307,0.567,0.921,0.671c0.838,0.072,1.675,0.148,2.513,0.228c1.203,0.119,2.061,0.334,2.571,0.646
		c0.566,0.343,0.85,0.865,0.85,1.567c0,0.79-0.353,1.399-1.059,1.83s-1.729,0.646-3.068,0.646c-1.891,0-3.401-0.43-4.534-1.291
		l0.778-1.018c1.013,0.71,2.257,1.065,3.732,1.065c0.828,0,1.471-0.105,1.925-0.317c0.455-0.212,0.682-0.492,0.682-0.844
		c0-0.391-0.278-0.666-0.836-0.825c-0.312-0.087-0.794-0.147-1.448-0.18c-1.021-0.047-1.646-0.083-1.878-0.107
		c-0.909-0.088-1.579-0.282-2.01-0.586c-0.431-0.303-0.646-0.745-0.646-1.328c0-0.701,0.344-1.257,1.034-1.668
		c0.689-0.411,1.657-0.616,2.901-0.616c1.658,0,3.003,0.359,4.03,1.077L210.316,18.325z"/>
	<path fill="#FFFFFF" d="M221.31,23.864h-7.919v-7.357h7.644v1.292h-6.209v1.591h4.319v1.292h-4.319v1.89h6.484V23.864z"/>
	<path fill="#FFFFFF" d="M229.826,18.325c-0.956-0.502-1.997-0.753-3.122-0.753c-1.635,0-2.451,0.292-2.451,0.873
		c0,0.344,0.306,0.567,0.92,0.671c0.838,0.072,1.675,0.148,2.513,0.228c1.203,0.119,2.061,0.334,2.571,0.646
		c0.566,0.343,0.85,0.865,0.85,1.567c0,0.79-0.353,1.399-1.059,1.83c-0.705,0.431-1.729,0.646-3.068,0.646
		c-1.891,0-3.401-0.43-4.534-1.291l0.778-1.018c1.013,0.71,2.257,1.065,3.732,1.065c0.829,0,1.471-0.105,1.925-0.317
		c0.455-0.212,0.683-0.492,0.683-0.844c0-0.391-0.279-0.666-0.837-0.825c-0.312-0.087-0.794-0.147-1.448-0.18
		c-1.021-0.047-1.646-0.083-1.878-0.107c-0.909-0.088-1.579-0.282-2.01-0.586c-0.43-0.303-0.646-0.745-0.646-1.328
		c0-0.701,0.345-1.257,1.034-1.668c0.689-0.411,1.657-0.616,2.901-0.616c1.659,0,3.003,0.359,4.03,1.077L229.826,18.325z"/>
	<path fill="#FFFFFF" d="M239.563,18.325c-0.956-0.502-1.997-0.753-3.122-0.753c-1.635,0-2.451,0.292-2.451,0.873
		c0,0.344,0.307,0.567,0.921,0.671c0.838,0.072,1.674,0.148,2.512,0.228c1.204,0.119,2.062,0.334,2.572,0.646
		c0.565,0.343,0.85,0.865,0.85,1.567c0,0.79-0.354,1.399-1.06,1.83c-0.705,0.431-1.728,0.646-3.068,0.646
		c-1.89,0-3.4-0.43-4.533-1.291l0.777-1.018c1.013,0.71,2.257,1.065,3.732,1.065c0.829,0,1.472-0.105,1.926-0.317
		c0.455-0.212,0.682-0.492,0.682-0.844c0-0.391-0.278-0.666-0.837-0.825c-0.312-0.087-0.793-0.147-1.447-0.18
		c-1.021-0.047-1.647-0.083-1.878-0.107c-0.909-0.088-1.579-0.282-2.011-0.586c-0.43-0.303-0.646-0.745-0.646-1.328
		c0-0.701,0.345-1.257,1.034-1.668c0.69-0.411,1.657-0.616,2.901-0.616c1.659,0,3.003,0.359,4.031,1.077L239.563,18.325z"/>
	<path fill="#FFFFFF" d="M251.874,20.168c0,1.204-0.515,2.185-1.544,2.942c-0.877,0.646-1.974,0.97-3.289,0.97
		c-1.316,0-2.417-0.324-3.302-0.97c-1.029-0.749-1.543-1.73-1.543-2.942c0-1.196,0.519-2.17,1.555-2.919
		c0.91-0.662,2.006-0.993,3.29-0.993c1.275,0,2.369,0.331,3.278,0.993C251.355,18.007,251.874,18.979,251.874,20.168z
		 M250.379,20.161c0-0.759-0.312-1.384-0.936-1.876c-0.623-0.491-1.426-0.737-2.408-0.737c-0.991,0-1.8,0.248-2.427,0.744
		c-0.627,0.495-0.941,1.118-0.941,1.869c0,0.784,0.309,1.418,0.924,1.9c0.615,0.485,1.43,0.727,2.444,0.727
		c1.007,0,1.815-0.241,2.427-0.727C250.072,21.579,250.379,20.945,250.379,20.161z"/>
	<path fill="#FFFFFF" d="M262.604,23.864h-1.645l-1.927-2.703h-3.654v2.703h-1.435v-7.357h5.944c0.782,0,1.404,0.211,1.867,0.634
		c0.462,0.422,0.692,0.989,0.692,1.698c0,1.221-0.609,1.967-1.83,2.237L262.604,23.864z M259.673,19.869
		c0.869,0,1.304-0.335,1.304-1.005c0-0.71-0.463-1.065-1.388-1.065h-4.211v2.07H259.673z"/>
</g>
</svg>
